<?xml version="1.0" encoding="UTF-8"?>
<!DOCTYPE svg PUBLIC "-//W3C//DTD SVG 1.1//EN" "http://www.w3.org/Graphics/SVG/1.1/DTD/svg11.dtd">
<!-- Creator: CorelDRAW 2021 (64 Bit) -->
<svg xmlns="http://www.w3.org/2000/svg" xml:space="preserve" width="310px" height="110px" version="1.1" style="shape-rendering:geometricPrecision; text-rendering:geometricPrecision; image-rendering:optimizeQuality; fill-rule:evenodd; clip-rule:evenodd"
viewBox="0 0 310 110"
 xmlns:xlink="http://www.w3.org/1999/xlink"
 xmlns:xodm="http://www.corel.com/coreldraw/odm/2003">
 <defs>
  <style type="text/css">
   <![CDATA[
    .fil0 {fill:none}
    .fil1 {fill:#4DC2F7;fill-rule:nonzero}
    .fil2 {fill:white;fill-rule:nonzero}
   ]]>
  </style>
 </defs>
 <g id="Camada_x0020_1">
  <metadata id="CorelCorpID_0Corel-Layer"/>
  <rect class="fil0" width="310" height="110"/>
  <g id="_2249672149808">
   <path class="fil1" d="M87.57 11.39c0.68,1.6 1.02,3.42 1.02,5.45 0,5.07 -2.53,12.53 -7.6,22.42 -5.07,9.89 -8.93,17.3 -11.58,22.25 1.85,0 5.12,0.03 9.82,0.09 2.06,0.03 3.44,0.45 4.12,1.25 2.02,-7 3.75,-12.45 5.18,-16.36 2.78,-7.46 5.96,-14.17 9.55,-20.15 4.75,-7.85 8.71,-11.77 11.86,-11.77 3.21,0 4.82,2.73 4.82,8.19 0,3.07 -0.59,6.37 -1.76,9.9 -2.54,7.51 -6.4,15.05 -11.59,22.62 -5.37,7.91 -10.04,12.52 -13.99,13.83 -0.19,1.36 -0.28,2.67 -0.28,3.92 0,4.16 1.08,6.26 3.24,6.32 0.99,0 2.18,-0.5 3.57,-1.49 1.39,-1 2.33,-1.5 2.83,-1.5 1.23,0 1.85,0.57 1.85,1.71 0,1.2 -1.16,2.49 -3.47,3.88 -2.32,1.4 -4.31,2.12 -5.98,2.18 -2.41,0.06 -4.33,-1.02 -5.75,-3.24 -1.42,-2.22 -2.13,-4.87 -2.13,-7.94 0,-1.48 0.19,-2.93 0.56,-4.35 -0.43,-0.91 -0.65,-1.51 -0.65,-1.8l0.01 -0.15c-0.45,0.1 -0.92,0.15 -1.43,0.15 -1.42,0 -3,-0.34 -4.73,-1.02 -1.67,0 -4.36,-0.03 -8.06,-0.09 -1.24,2.17 -2.47,4.33 -3.71,6.49 -1.67,3.13 -2.72,5.55 -3.15,7.26 0.87,1.42 1.14,2.61 0.83,3.58 -0.67,1.99 -2.16,2.99 -4.44,2.99 -2.29,0 -3.43,-1.08 -3.43,-3.25 0,-1.7 0.92,-4.49 2.78,-8.36 1.48,-3.02 2.96,-6.03 4.45,-9.05 -2.23,0.06 -6.92,0.03 -14.09,-0.08 -6.86,-0.06 -12.45,-0.03 -16.77,0.08 -6.55,0.12 -12.48,0.4 -17.79,0.86 -1.36,0.11 -2.49,-0.15 -3.39,-0.77 -0.89,-0.63 -1.34,-1.34 -1.34,-2.14 0,-1.25 0.99,-1.87 2.97,-1.87l52.72 0c2.29,-4.1 6,-10.87 11.12,-20.32 6.61,-12.46 9.67,-21.08 9.18,-25.86 -0.68,-6.66 -7.63,-9.99 -20.85,-9.99 -1.36,0 -2.82,0.03 -4.36,0.09 -10.01,0.4 -20.32,3.38 -30.95,8.96 -12.11,6.37 -18.32,13.46 -18.62,21.25 -0.19,4.21 2.5,7.86 8.06,10.93 4.82,2.73 10.69,4.47 17.6,5.2 2.6,0.29 5.16,0.57 7.7,0.86 0.92,0.17 1.35,0.71 1.29,1.62 -0.12,1.42 -1.26,2.13 -3.43,2.13 -0.18,0 -1.02,-0.08 -2.5,-0.25 -22.67,-2.28 -34.19,-8.98 -34.56,-20.12 -0.25,-7.78 5.65,-15.22 17.7,-22.32 11.36,-6.71 23.72,-10.71 37.06,-12.02 2.29,-0.23 4.51,-0.34 6.67,-0.34 13.04,0 20.98,3.39 23.82,10.14zm219.19 39.62c-1.54,3.87 -3.77,7.14 -6.67,9.82 -3.15,2.84 -6.64,4.61 -10.47,5.29 -1.36,0.23 -2.47,0.34 -3.34,0.34 -0.86,0 -2.31,-0.37 -4.35,-1.11 -0.74,2.11 -1.12,4.3 -1.12,6.57 0,4.56 1.52,7.12 4.55,7.69 0.86,0.17 1.73,0.25 2.59,0.25 2.9,0 6.49,-1.08 10.75,-3.24 2.22,-1.14 3.64,-1.71 4.26,-1.71 0.74,0 1.21,0.51 1.39,1.54 0.19,0.91 -1.05,2.13 -3.7,3.67 -4.51,2.56 -9.24,3.84 -14.18,3.84 -3.71,0 -6.49,-1.02 -8.34,-3.07 -1.6,-1.77 -2.51,-4.09 -2.73,-6.97 -1.73,2.34 -4.69,4.69 -8.86,7.05 -6.3,3.59 -12.57,5.18 -18.81,4.78 -4.91,-0.33 -8.67,-1.81 -11.26,-4.45 -0.46,0.56 -1.13,1.22 -2.02,1.98 -2.29,1.93 -4.55,2.73 -6.77,2.39 -3.15,-0.51 -4.73,-3.53 -4.73,-9.05 0,-5.69 1.27,-11.75 3.8,-18.18 0.81,-1.99 1.21,-3.56 1.21,-4.7 0,-0.51 -0.12,-0.79 -0.37,-0.85 -0.43,-0.11 -1.98,1.65 -4.64,5.29 -2.4,3.13 -4.78,6.26 -7.13,9.39 -2.9,3.93 -5.65,8.14 -8.25,12.63 -0.31,0.52 -0.89,0.97 -1.76,1.37 -0.86,0.4 -1.67,0.51 -2.41,0.34 -1.54,-0.28 -2.31,-1.19 -2.31,-2.73l0 -0.05c-0.46,0.31 -0.98,0.64 -1.58,0.99 -4.51,2.56 -9.23,3.84 -14.18,3.84 -3.7,0 -6.48,-1.02 -8.34,-3.07 -1.85,-2.05 -2.78,-4.84 -2.78,-8.37 0,-4.04 1.08,-8.56 3.25,-13.57 6.48,-14.79 13.53,-22.19 21.13,-22.19 0.74,0 1.48,0.06 2.22,0.17 1.6,0.28 2.96,1.29 4.08,3.03 1.11,1.74 1.66,3.77 1.66,6.1 0,1.65 -0.3,3.3 -0.92,4.95 -1.55,3.87 -3.77,7.14 -6.68,9.82 -3.15,2.84 -6.64,4.61 -10.47,5.29 -1.36,0.23 -2.47,0.34 -3.33,0.34 -0.87,0 -2.32,-0.37 -4.36,-1.11 -0.74,2.11 -1.11,4.3 -1.11,6.57 0,4.56 1.51,7.12 4.54,7.69 0.87,0.17 1.73,0.25 2.6,0.25 2.9,0 6.48,-1.08 10.74,-3.24 2.23,-1.14 3.65,-1.71 4.27,-1.71 0.12,0 0.23,0.02 0.33,0.04 1.05,-3.22 2.42,-7.1 4.12,-11.65 1.91,-5.23 3.86,-10.47 5.83,-15.7 -0.37,-0.4 -0.55,-0.83 -0.55,-1.28 0,-0.68 0.46,-1.65 1.39,-2.9 0.49,-0.69 1.45,-1.03 2.87,-1.03 2.29,0 3.24,0.97 2.87,2.9 -0.31,1.48 -1.54,4.53 -3.7,9.14 -1.49,3.13 -3.99,9.07 -7.51,17.84 2.59,-4.39 7.94,-11.7 16.03,-21.94 2.04,-2.56 4.17,-4.1 6.39,-4.61 0.44,-0.11 0.84,-0.17 1.21,-0.17 2.29,0 3.43,1.45 3.43,4.35 0,1.03 -0.19,2.17 -0.56,3.42 -2.41,7.68 -4.11,13.37 -5.09,17.07 -0.68,2.56 -1.02,4.78 -1.02,6.66 0,2.56 0.58,3.87 1.76,3.92 0.49,0 1.28,-0.52 2.36,-1.58 0.83,-0.81 1.54,-1.3 2.14,-1.49 -0.94,-1.99 -1.41,-4.29 -1.41,-6.91 0,-7.06 3.25,-14.57 9.73,-22.54 6.92,-8.36 13.96,-12.57 21.13,-12.63 3.89,-0.06 7.14,1.36 9.73,4.27 2.22,2.44 3.4,5.03 3.52,7.76 1.11,0.69 1.67,1.37 1.67,2.05 0,0.74 -0.65,1.68 -1.95,2.82 -0.31,0.91 -0.55,1.59 -0.74,2.05 -0.49,1.59 -1.85,2.39 -4.08,2.39 -1.66,0 -2.5,-0.71 -2.5,-2.14 0,-0.96 0.43,-2.13 1.3,-3.5 0.12,-0.45 0.19,-1.02 0.19,-1.7 0,-2.16 -0.65,-4.18 -1.95,-6.06 -1.48,-2.22 -3.43,-3.33 -5.84,-3.33 -4.14,-0.06 -8.99,2.99 -14.55,9.13 -5.12,5.64 -8.31,10.73 -9.54,15.28 -0.56,2.05 -0.84,3.93 -0.84,5.63 0,7.06 3.86,10.67 11.59,10.84 4.51,0.12 8.96,-1.11 13.34,-3.67 3.09,-1.82 5.68,-3.92 7.79,-6.31 1.11,-1.77 2.25,-2.65 3.42,-2.65 0.56,0 1.04,0.17 1.44,0.51 0.42,-3.15 1.42,-6.57 3.01,-10.24 6.49,-14.79 13.53,-22.19 21.13,-22.19 0.74,0 1.48,0.06 2.22,0.17 1.61,0.28 2.97,1.29 4.08,3.03 1.11,1.74 1.67,3.77 1.67,6.1 0,1.65 -0.31,3.3 -0.93,4.95zm-5.28 -0.94c0.37,-1.08 0.55,-2.24 0.55,-3.5 0,-3.41 -1.26,-4.95 -3.79,-4.61 -1.98,0.29 -4.67,2.65 -8.06,7.09 -3.09,4.1 -5.16,7.68 -6.21,10.75 -0.31,0.8 0.18,1.43 1.48,1.88 0.86,0.29 1.82,0.43 2.87,0.43 2.29,0 4.77,-1.2 7.46,-3.59 2.69,-2.39 4.59,-5.2 5.7,-8.45zm-101.14 0c0.37,-1.08 0.56,-2.24 0.56,-3.5 0,-3.41 -1.26,-4.95 -3.8,-4.61 -1.98,0.29 -4.66,2.65 -8.06,7.09 -3.09,4.1 -5.16,7.68 -6.21,10.75 -0.31,0.8 0.19,1.43 1.48,1.88 0.87,0.29 1.83,0.43 2.88,0.43 2.28,0 4.77,-1.2 7.46,-3.59 2.68,-2.39 4.58,-5.2 5.69,-8.45zm-19.43 -4.09c-0.8,2.04 -2.19,3.07 -4.17,3.07 -0.87,0 -1.7,-0.23 -2.5,-0.68 -0.81,-0.46 -0.9,-1.63 -0.28,-3.5 -2.9,0.22 -6.19,1.93 -9.87,5.12 -3.67,3.18 -6.81,8.22 -9.4,15.11 -1.98,5.35 -2.94,9.19 -2.88,11.52 0.06,2.33 -0.31,3.78 -1.11,4.35 -0.55,0.34 -1.17,0.51 -1.85,0.51 -1.05,0 -1.99,-0.32 -2.83,-0.98 -0.83,-0.65 -1.16,-1.29 -0.97,-1.92 0.74,-2.84 2.84,-8.56 6.3,-17.15 3.27,-8.14 5.16,-13.26 5.65,-15.37 -0.31,-0.23 -0.46,-0.57 -0.46,-1.02 0,-0.86 0.39,-1.78 1.16,-2.78 0.77,-0.99 1.62,-1.55 2.55,-1.66 0.92,-0.17 1.9,-0.04 2.91,0.38 1.02,0.43 1.53,1.01 1.53,1.75 0,0.23 -0.06,0.46 -0.18,0.69 -0.56,0.96 -1.21,2.13 -1.95,3.5 3.03,-3.87 7.14,-6.21 12.33,-7 1.05,-0.17 1.97,-0.26 2.78,-0.26 2.72,0 4.07,0.97 4.07,2.9 0,0.86 -0.27,1.99 -0.83,3.42zm-35.89 20.4c-2.28,5.17 -5.8,9.47 -10.56,12.89 -5.07,3.64 -10.38,5.46 -15.94,5.46 -1.17,0 -2.32,-0.09 -3.43,-0.26 -3.89,-0.57 -6.89,-2.16 -8.99,-4.78 -2.03,-2.44 -3.05,-5.57 -3.05,-9.39 0,-4.49 1.36,-9.19 4.07,-14.08 2.72,-4.9 5.93,-9.11 9.64,-12.63 4.26,-4.1 8.15,-6.15 11.68,-6.15 1.17,0 2.25,0.23 3.24,0.68 5.56,-0.17 9.7,1.43 12.42,4.78 2.28,2.85 3.42,6.66 3.42,11.44 0,4.21 -0.83,8.22 -2.5,12.04zm-4.91 -1.54c1.61,-3.81 2.41,-7.48 2.41,-11.01 0,-7.06 -3.27,-10.87 -9.82,-11.44 -1.11,0.46 -2.07,0.57 -2.87,0.34 -4.2,0.63 -7.73,2.36 -10.57,5.21 -1.91,1.93 -4.26,5.32 -7.04,10.16 -2.47,4.26 -3.71,8.28 -3.71,12.03 0,3.02 0.81,5.47 2.41,7.34 1.61,1.88 3.74,2.88 6.4,2.99 4.88,0.23 9.39,-1.12 13.53,-4.05 4.13,-2.93 7.22,-6.79 9.26,-11.57zm-30.54 -44.04c-2.17,-0.69 -6.06,4.58 -11.68,15.79 -2.35,4.72 -4.52,9.84 -6.53,15.36 -2.01,5.52 -3.01,9.13 -3.01,10.84 0,0.46 0.09,0.71 0.27,0.77 1.24,0.4 3.86,-2.42 7.88,-8.45 3.71,-5.58 6.7,-10.87 8.99,-15.88 3.09,-6.71 4.63,-12.29 4.63,-16.73 0,-1.02 -0.18,-1.59 -0.55,-1.7z"/>
   <polygon class="fil2" points="165.77,108.71 165.77,100.18 163.71,100.18 163.71,98.46 169.48,98.46 169.48,100.18 167.49,100.18 167.49,108.71 "/>
   <polygon id="_1" class="fil2" points="179.65,108.71 179.65,104.77 177.38,104.77 177.38,108.71 175.66,108.71 175.66,98.45 177.38,98.45 177.38,103.11 179.65,103.11 179.65,98.45 181.37,98.45 181.37,108.71 "/>
   <polygon id="_2" class="fil2" points="187.55,108.71 187.55,98.45 192.61,98.45 192.61,100.17 189.27,100.17 189.27,102.33 191.45,102.33 191.45,104.04 189.27,104.04 189.27,106.99 192.61,106.99 192.61,108.71 "/>
   <polygon id="_3" class="fil2" points="258.31,105 258.31,108.71 256.43,108.71 256.43,98.45 258.31,98.45 258.31,102.59 260.41,98.48 262.43,98.48 259.62,103.75 262.45,108.74 260.35,108.74 "/>
   <path id="_4" class="fil2" d="M272.37 100.95c0.01,-0.5 -0.24,-0.75 -0.74,-0.75l-0.52 0c-0.5,0 -0.74,0.25 -0.73,0.75l0 5.27c-0.01,0.49 0.23,0.74 0.73,0.74l0.52 0c0.5,0 0.75,-0.25 0.74,-0.74l0 -5.27zm-3.74 -0.66c0,-1.22 0.61,-1.83 1.83,-1.84l1.82 0c1.22,0.01 1.83,0.62 1.83,1.84l0 6.57c0,1.22 -0.61,1.83 -1.83,1.84l-1.82 0c-1.22,-0.01 -1.83,-0.62 -1.83,-1.84l0 -6.57z"/>
   <polygon id="_5" class="fil2" points="283.7,107.52 282.03,102.96 282.03,108.75 280.29,108.75 280.29,98.45 282.13,98.45 284.27,104.13 286.41,98.45 288.25,98.45 288.25,108.75 286.55,108.75 286.55,102.97 284.88,107.52 "/>
   <path id="_6" class="fil2" d="M294.43 98.45l3.52 0c1.22,0.01 1.83,0.62 1.83,1.84l0 1.62c0,0.52 -0.21,0.94 -0.63,1.29 0.42,0.34 0.63,0.76 0.63,1.27l0 2.39c0,1.22 -0.61,1.83 -1.83,1.84l-3.52 0 0 -10.25zm3.61 6.66c0.01,-0.7 -0.23,-1.05 -0.74,-1.05l-1.12 0 0 2.9 1.12 0c0.51,0 0.75,-0.25 0.74,-0.74l0 -1.11zm0 -4.16c0.01,-0.5 -0.23,-0.75 -0.74,-0.75l-1.12 0 0 2.07 1.12 0c0.51,0 0.75,-0.33 0.74,-1l0 -0.32z"/>
   <polygon id="_7" class="fil2" points="305.96,108.71 305.96,98.45 307.68,98.45 307.68,108.71 "/>
   <polygon id="_8" class="fil2" points="206.72,98.45 208.48,98.45 208.48,108.71 206.77,108.71 206.77,100.55 206.39,100.96 205.35,99.92 "/>
   <path id="_9" class="fil2" d="M218.4 102.36l0 -1.42c0.01,-0.5 -0.24,-0.74 -0.74,-0.74l-0.52 0c-0.47,0 -0.72,0.21 -0.73,0.65l0 0.85c0.01,0.44 0.26,0.66 0.73,0.66l1.26 0zm-3.74 3.39l1.75 0 0 0.55c0.01,0.44 0.26,0.65 0.73,0.65l0.52 0c0.5,0 0.75,-0.24 0.74,-0.74l0 -2.11 -1.9 0c-1.22,-0.01 -1.84,-0.62 -1.84,-1.84l0 -1.97c0,-1.22 0.62,-1.83 1.84,-1.84l1.81 0c1.22,0.01 1.84,0.62 1.84,1.84l0 6.57c0,1.22 -0.62,1.83 -1.84,1.84l-1.81 0c-1.19,-0.01 -1.8,-0.58 -1.84,-1.73l0 -1.22z"/>
   <path id="_10" class="fil2" d="M230.06 101.41l0 -0.46c0.02,-0.5 -0.23,-0.75 -0.73,-0.75l-0.52 0c-0.5,0 -0.75,0.25 -0.74,0.75l0 1.33 1.9 0c1.22,0.01 1.83,0.62 1.83,1.84l0 2.74c0,1.22 -0.61,1.83 -1.83,1.84l-1.81 0c-1.22,-0.01 -1.84,-0.62 -1.84,-1.84l0 -6.57c0,-1.22 0.62,-1.83 1.84,-1.84l1.81 0c1.19,0.01 1.8,0.6 1.83,1.76l0 1.2 -1.74 0zm-1.25 5.55l0.52 0c0.46,0 0.7,-0.21 0.73,-0.64l0 -1.64c-0.01,-0.44 -0.26,-0.66 -0.73,-0.66l-1.26 0 0 2.2c-0.01,0.49 0.24,0.74 0.74,0.74z"/>
   <polygon id="_11" class="fil2" points="237.98,98.45 239.7,98.45 239.7,103.8 241.15,103.8 241.15,101.47 242.86,101.47 242.86,103.8 243.69,103.8 243.69,105.52 242.86,105.52 242.86,108.71 241.15,108.71 241.15,105.52 237.98,105.52 "/>
  </g>
 </g>
</svg>
