<?xml version="1.0" encoding="UTF-8"?>
<!DOCTYPE svg PUBLIC "-//W3C//DTD SVG 1.1//EN" "http://www.w3.org/Graphics/SVG/1.1/DTD/svg11.dtd">
<!-- Creator: CorelDRAW 2021 (64 Bit) -->
<svg xmlns="http://www.w3.org/2000/svg" xml:space="preserve" width="64px" height="64px" version="1.1" style="shape-rendering:geometricPrecision; text-rendering:geometricPrecision; image-rendering:optimizeQuality; fill-rule:evenodd; clip-rule:evenodd"
viewBox="0 0 64 64"
 xmlns:xlink="http://www.w3.org/1999/xlink"
 xmlns:xodm="http://www.corel.com/coreldraw/odm/2003">
 <defs>
  <style type="text/css">
   <![CDATA[
    .fil0 {fill:#1874B9}
    .fil1 {fill:white;fill-rule:nonzero}
   ]]>
  </style>
 </defs>
 <g id="Camada_x0020_1">
  <metadata id="CorelCorpID_0Corel-Layer"/>
  <rect class="fil0" width="64" height="64" rx="128" ry="99.74"/>
  <path class="fil1" d="M25.74 32.44c0,0.01 -0.01,0.03 -0.01,0.04 0,-0.01 0.01,-0.02 0.01,-0.03l0 -0.01zm-3.56 -3.51l0 0c0,0 0,0 0,0l0 0zm0.03 -0.02c-0.01,0.01 -0.02,0.02 -0.03,0.02l0.03 -0.02 0 0 0 0zm5.07 14.93l-1.72 1.73 -1.73 1.73c2.8,2.8 6.48,4.2 10.16,4.2 3.69,0 7.37,-1.4 10.17,-4.2l-1.73 -1.73 -1.73 -1.73c-1.84,1.85 -4.28,2.78 -6.71,2.78 -2.43,0 -4.86,-0.93 -6.71,-2.78zm13.42 -13.42l3.46 -3.46c-3.38,-3.38 -8.04,-4.72 -12.44,-4.02 0.7,-4.4 -0.64,-9.06 -4.03,-12.44l-3.45 3.45c3.07,3.08 3.59,7.75 1.56,11.37 1.8,-1.26 3.83,-2.05 5.92,-2.38 -0.33,2.09 -1.13,4.12 -2.38,5.92 3.62,-2.03 8.29,-1.51 11.36,1.56zm-14.93 -5.08l-6.46 -6.46 -3.57 3.56 6.46 6.46c0.48,-0.68 1.02,-1.33 1.63,-1.94 0.6,-0.6 1.25,-1.15 1.94,-1.62zm1.92 5.49c-0.6,0.61 -1.25,1.15 -1.93,1.62l6.48 6.49 3.56 -3.57 -6.48 -6.48c-0.48,0.68 -1.02,1.33 -1.63,1.94z"/>
 </g>
</svg>