<?xml version="1.0" encoding="UTF-8"?>
<!DOCTYPE svg PUBLIC "-//W3C//DTD SVG 1.1//EN" "http://www.w3.org/Graphics/SVG/1.1/DTD/svg11.dtd">
<!-- Creator: CorelDRAW 2021 (64 Bit) -->
<svg xmlns="http://www.w3.org/2000/svg" xml:space="preserve" width="250px" height="250px" version="1.1" style="shape-rendering:geometricPrecision; text-rendering:geometricPrecision; image-rendering:optimizeQuality; fill-rule:evenodd; clip-rule:evenodd"
viewBox="0 0 250 250"
 xmlns:xlink="http://www.w3.org/1999/xlink"
 xmlns:xodm="http://www.corel.com/coreldraw/odm/2003">
 <defs>
  <style type="text/css">
   <![CDATA[
    .fil0 {fill:none}
    .fil1 {fill:white;fill-rule:nonzero}
   ]]>
  </style>
 </defs>
 <g id="Camada_x0020_1">
  <metadata id="CorelCorpID_0Corel-Layer"/>
  <rect class="fil0" width="250" height="250"/>
  <g id="_2251789138720">
   <path class="fil1" d="M110.26 85.89c-0.02,0.04 -0.04,0.07 -0.06,0.11 0.02,-0.04 0.04,-0.07 0.06,-0.11l0 0zm-12.45 -12.29l-0.01 0.01c0,-0.01 0,-0.01 0,-0.01l0.01 0zm0.1 -0.06c-0.03,0.02 -0.07,0.04 -0.1,0.06l0.1 -0.06 0 0 0 0zm17.74 52.2l-12.09 12.09c19.6,19.61 51.51,19.61 71.11,0l-12.09 -12.09c-12.94,12.95 -33.99,12.95 -46.93,0zm46.93 -46.93l12.09 -12.09c-11.83,-11.83 -28.13,-16.52 -43.52,-14.07 2.45,-15.38 -2.24,-31.69 -14.07,-43.52l-12.09 12.09c10.75,10.75 12.56,27.09 5.45,39.74 6.31,-4.38 13.41,-7.15 20.71,-8.31 -1.16,7.3 -3.93,14.4 -8.31,20.71 12.65,-7.11 28.99,-5.3 39.74,5.45zm-52.24 -17.77l-22.58 -22.59 -12.47 12.47 22.58 22.58c1.67,-2.38 3.56,-4.65 5.69,-6.78 2.12,-2.13 4.4,-4.02 6.78,-5.68zm6.74 19.2c-2.12,2.13 -4.4,4.02 -6.78,5.69l22.66 22.66 12.47 -12.46 -22.66 -22.67c-1.67,2.38 -3.56,4.66 -5.69,6.78z"/>
   <path class="fil1" d="M26.4 184.27l0 -2.35c-0.13,-1.79 -1.15,-2.69 -3.07,-2.69l-2.16 0c-2.1,0 -3.12,1.04 -3.06,3.1l0 22c-0.06,2.07 0.96,3.1 3.06,3.1l2.16 0c2.1,0 3.12,-1.03 3.07,-3.1l0 -2.45 7.27 0 0 5.15c0,5.08 -2.55,7.64 -7.65,7.67l-7.57 0c-5.09,-0.03 -7.64,-2.59 -7.64,-7.67l0 -27.42c0,-5.08 2.55,-7.64 7.64,-7.68l7.57 0c4.92,0.04 7.47,2.44 7.65,7.22l0 5.12 -7.27 0zm191.65 30.46l0 -42.8 21.14 0 0 7.17 -13.98 0 0 8.99 9.11 0 0 7.17 -9.11 0 0 12.3 13.98 0 0 7.17 -21.14 0zm-40.76 0l0 -42.8 21.14 0 0 7.17 -13.97 0 0 8.99 9.1 0 0 7.17 -9.1 0 0 12.3 13.97 0 0 7.17 -21.14 0zm-40.76 0.03l0 -42.83 21.14 0 0 7.17 -13.97 0 0 8.99 9.1 0 0 7.17 -9.1 0 0 19.5 -7.17 0zm-40.76 0l0 -42.83 21.15 0 0 7.17 -13.98 0 0 8.99 9.1 0 0 7.17 -9.1 0 0 19.5 -7.17 0zm-26.89 -32.43c0.06,-2.06 -0.97,-3.1 -3.07,-3.1l-2.15 0c-2.1,0 -3.13,1.04 -3.07,3.1l0 22c-0.06,2.07 0.97,3.1 3.07,3.1l2.15 0c2.1,0 3.13,-1.03 3.07,-3.1l0 -22zm-15.59 -2.72c0,-5.08 2.55,-7.64 7.65,-7.68l7.57 0c5.1,0.04 7.65,2.6 7.65,7.68l0 27.42c0,5.08 -2.55,7.64 -7.65,7.67l-7.57 0c-5.1,-0.03 -7.65,-2.59 -7.65,-7.67l0 -27.42z"/>
   <path class="fil1" d="M59.06 236.28l-0.9 -3.82 -0.94 3.82 1.84 0zm137.16 -8.33l2.16 0 0 12.91 -2.16 0 0 -12.91zm-8.64 8.38c0.02,-0.88 -0.29,-1.33 -0.93,-1.33l-1.41 0 0 3.65 1.41 0c0.64,0 0.95,-0.31 0.93,-0.93l0 -1.39zm0 -5.24c0.02,-0.63 -0.29,-0.94 -0.93,-0.94l-1.41 0 0 2.61 1.41 0c0.64,0 0.95,-0.42 0.93,-1.26l0 -0.41zm-4.54 -3.14l4.43 0c1.53,0.01 2.3,0.78 2.3,2.32l0 2.03c0,0.65 -0.26,1.19 -0.78,1.62 0.52,0.43 0.78,0.96 0.78,1.6l0 3.01c0,1.54 -0.77,2.31 -2.3,2.32l-4.43 0 0 -12.9zm-12.16 11.4l-2.11 -5.73 0 7.25 -2.19 0 0 -12.93 2.31 0 2.7 7.15 2.69 -7.15 2.31 0 0 12.93 -2.13 0 0 -7.23 -2.11 5.71 -1.47 0zm-12.94 -8.26c0.02,-0.63 -0.29,-0.94 -0.93,-0.94l-0.64 0c-0.64,0 -0.95,0.31 -0.93,0.94l0 6.63c-0.02,0.62 0.29,0.93 0.93,0.93l0.64 0c0.64,0 0.95,-0.31 0.93,-0.93l0 -6.63zm-4.7 -0.82c0,-1.54 0.77,-2.31 2.3,-2.32l2.29 0c1.53,0.01 2.3,0.78 2.3,2.32l0 8.26c0,1.54 -0.77,2.31 -2.3,2.32l-2.29 0c-1.53,-0.01 -2.3,-0.78 -2.3,-2.32l0 -8.26zm-11.66 5.92l0 4.67 -2.37 0 0 -12.92 2.37 0 0 5.22 2.64 -5.18 2.55 0 -3.54 6.64 3.55 6.25 -2.64 0 -2.56 -4.68zm-24.14 4.67l0 -12.91 6.38 0 0 2.16 -4.22 0 0 2.71 2.75 0 0 2.16 -2.75 0 0 3.72 4.22 0 0 2.16 -6.38 0zm-8.6 0l0 -4.97 -2.86 0 0 4.97 -2.16 0 0 -12.91 2.16 0 0 5.86 2.86 0 0 -5.86 2.16 0 0 12.91 -2.16 0zm-16.14 0l0 -10.74 -2.59 0 0 -2.16 7.26 0 0 2.16 -2.51 0 0 10.74 -2.16 0zm-22.66 0l0 -10.74 -2.59 0 0 -2.16 7.26 0 0 2.16 -2.51 0 0 10.74 -2.16 0zm-13.33 -2.48l-0.61 2.47 -2.43 0 3.34 -12.86 2.28 0 3.36 12.86 -2.51 0 -0.59 -2.47 -2.84 0z"/>
  </g>
 </g>
</svg>
