<svg xmlns="http://www.w3.org/2000/svg" xml:space="preserve" width="64" height="64" style="shape-rendering:geometricPrecision;text-rendering:geometricPrecision;image-rendering:optimizeQuality;fill-rule:evenodd;clip-rule:evenodd"><circle cx="32" cy="32" r="32" style="fill:#fff"/><path d="M23.78 37.64zm17.48-19.26zM28.43 46.46l-4.65-8.82c-2.2-4.7-4.88-11.6-2.9-16.26 1.4-3.3 4.2-5.8 7.63-6.83 4.64-1.39 9.67.13 12.75 3.83 4.71 5.66 2.02 12.85-1.05 19.24l-4.69 8.72c-2.57 4.5-4.27 5.09-7.09.12zm9.16-14.78zm0-11.13zm-11.17 0zm0 11.13a7.916 7.916 0 0 0 5.59 2.3c2.18 0 4.15-.88 5.58-2.3a7.839 7.839 0 0 0 2.32-5.56c0-2.17-.89-4.14-2.32-5.57a7.892 7.892 0 0 0-5.58-2.3c-2.18 0-4.16.88-5.59 2.3a7.853 7.853 0 0 0-2.31 5.57c0 2.17.88 4.13 2.31 5.56z" style="fill:#1874b9"/></svg>
