<svg xmlns="http://www.w3.org/2000/svg" xml:space="preserve" width="64" height="64" style="shape-rendering:geometricPrecision;text-rendering:geometricPrecision;image-rendering:optimizeQuality;fill-rule:evenodd;clip-rule:evenodd"><circle cx="32" cy="32" r="30.88" style="fill:#fff"/><path d="M47.97 25.38c-.08-1.71-.35-2.88-.75-3.9a7.719 7.719 0 0 0-1.85-2.85c-.8-.82-1.77-1.45-2.85-1.85-1.02-.4-2.19-.67-3.9-.75-1.71-.08-2.26-.1-6.62-.1s-4.91.02-6.62.1-2.88.35-3.9.75c-1.07.4-2.05 1.03-2.85 1.85-.82.8-1.45 1.77-1.85 2.85-.4 1.02-.67 2.19-.75 3.9-.08 1.71-.09 2.26-.09 6.62s.01 4.91.09 6.62.35 2.88.75 3.9c.4 1.07 1.03 2.05 1.85 2.85.8.82 1.78 1.45 2.85 1.85 1.02.4 2.19.67 3.9.75 1.71.08 2.26.09 6.62.09s4.91-.01 6.62-.09 2.88-.35 3.9-.75a8.182 8.182 0 0 0 4.7-4.7c.4-1.02.67-2.19.75-3.9.08-1.71.1-2.26.1-6.62s-.02-4.91-.1-6.62zm-5.15-2.27c0 1.06-.86 1.92-1.93 1.92a1.92 1.92 0 0 1-1.92-1.92 1.925 1.925 0 1 1 3.85 0zM32 23.43c-4.73 0-8.57 3.84-8.57 8.57s3.84 8.57 8.57 8.57 8.57-3.84 8.57-8.57-3.84-8.57-8.57-8.57zm0 13.65c-2.8 0-5.08-2.28-5.08-5.08A5.08 5.08 0 1 1 32 37.08z" style="fill:#1874b9"/></svg>